<svg width="189" height="45" viewBox="0 0 63 15" fill="none" xmlns="http://www.w3.org/2000/svg">
<path d="M34.3 3.324H38.056C38.184 3.324 38.288 3.368 38.368 3.456C38.448 3.544 38.488 3.66 38.488 3.804V12H37.228C36.956 12 36.776 11.956 36.688 11.868C36.608 11.78 36.568 11.596 36.568 11.316V4.824H34.648C34.416 4.824 34.3 4.632 34.3 4.248V3.324ZM38.968 3.324H40.888C41.12 3.324 41.236 3.516 41.236 3.9V4.824H38.968V3.324Z" fill="white"/>
<path d="M54.4414 3.69141C54.793 3.75391 55.082 3.79688 55.3086 3.82031C55.5352 3.84375 55.7188 3.86328 55.8594 3.87891C56.0234 3.89453 56.1523 3.89844 56.2461 3.89062H56.5977C56.7227 3.89062 56.8789 3.89062 57.0664 3.89062C57.2617 3.88281 57.5039 3.87891 57.793 3.87891C57.957 4.26172 58.1055 4.61328 58.2383 4.93359C58.3789 5.25391 58.4961 5.52734 58.5898 5.75391C58.6992 6.02734 58.8008 6.27344 58.8945 6.49219C59.0039 6.76562 59.1211 7.06641 59.2461 7.39453C59.3711 7.72266 59.4844 8.03125 59.5859 8.32031C59.6953 8.60938 59.7852 8.84766 59.8555 9.03516C59.9258 9.22266 59.9609 9.30859 59.9609 9.29297C59.9609 9.28516 59.9648 9.20703 59.9727 9.05859C59.9805 8.90234 59.9883 8.71094 59.9961 8.48438C60.0039 8.25 60.0117 7.99609 60.0195 7.72266C60.0352 7.44141 60.043 7.17188 60.043 6.91406C60.0508 6.64844 60.0547 6.40625 60.0547 6.1875C60.0547 5.96875 60.0469 5.80469 60.0312 5.69531C60.0078 5.5625 59.9609 5.41016 59.8906 5.23828C59.8281 5.08984 59.7422 4.91406 59.6328 4.71094C59.5234 4.5 59.3711 4.26172 59.1758 3.99609C59.4961 4.00391 59.7578 4.00781 59.9609 4.00781C60.1641 4.00781 60.3281 4.00781 60.4531 4.00781C60.5938 4.00781 60.7031 4.00391 60.7812 3.99609C60.8828 3.99609 61.0078 3.98828 61.1562 3.97266C61.2891 3.95703 61.4531 3.94531 61.6484 3.9375C61.8516 3.92187 62.1016 3.90234 62.3984 3.87891C62.2266 4.03516 62.0898 4.18359 61.9883 4.32422C61.8867 4.46484 61.8047 4.58984 61.7422 4.69922C61.6719 4.82422 61.625 4.94141 61.6016 5.05078C61.5703 5.19141 61.543 5.42188 61.5195 5.74219C61.5039 6.05469 61.4844 6.40625 61.4609 6.79688C61.4453 7.1875 61.4297 7.59375 61.4141 8.01562C61.3984 8.4375 61.3828 8.82422 61.3672 9.17578C61.3672 9.44141 61.3594 9.72656 61.3438 10.0312C61.3281 10.2891 61.3125 10.582 61.2969 10.9102C61.2812 11.2305 61.2617 11.5547 61.2383 11.8828L60.1953 11.9062C59.8906 11.3672 59.6328 10.9062 59.4219 10.5234C59.2188 10.1328 59.0508 9.8125 58.918 9.5625C58.7695 9.27344 58.6445 9.03125 58.543 8.83594C58.457 8.64844 58.3438 8.43359 58.2031 8.19141C58.0859 7.98828 57.9375 7.73828 57.7578 7.44141C57.5859 7.14453 57.3789 6.80469 57.1367 6.42188C57.1133 6.96094 57.1016 7.42188 57.1016 7.80469C57.1094 8.17969 57.1211 8.49219 57.1367 8.74219C57.1602 9.03125 57.1875 9.27344 57.2188 9.46875C57.2578 9.65625 57.3125 9.86719 57.3828 10.1016C57.4453 10.3047 57.5195 10.543 57.6055 10.8164C57.6992 11.0898 57.8125 11.3984 57.9453 11.7422C57.4844 11.7188 57.1406 11.707 56.9141 11.707H56.5625C56.4531 11.707 56.3047 11.7188 56.1172 11.7422C55.9609 11.7578 55.7461 11.7812 55.4727 11.8125C55.207 11.8438 54.875 11.8867 54.4766 11.9414C54.6641 11.7148 54.8125 11.5078 54.9219 11.3203C55.0391 11.125 55.1289 10.9609 55.1914 10.8281C55.2695 10.6719 55.3242 10.5352 55.3555 10.418C55.3789 10.293 55.3945 10.0781 55.4023 9.77344C55.4102 9.46094 55.4102 9.10938 55.4023 8.71875C55.4023 8.32031 55.3945 7.90234 55.3789 7.46484C55.3711 7.02734 55.3594 6.62109 55.3438 6.24609C55.3281 5.87109 55.3086 5.55078 55.2852 5.28516C55.2695 5.01953 55.2578 4.85547 55.25 4.79297C55.2266 4.69141 55.1797 4.58203 55.1094 4.46484C55.0469 4.36328 54.9648 4.25 54.8633 4.125C54.7617 3.99219 54.6211 3.84766 54.4414 3.69141Z" fill="white"/>
<path d="M46.5 8C46.5 9.00685 46.1933 9.89913 45.7213 10.5284C45.2495 11.1576 44.6358 11.5 44 11.5C43.3642 11.5 42.7505 11.1576 42.2787 10.5284C41.8067 9.89913 41.5 9.00685 41.5 8C41.5 6.99315 41.8067 6.10087 42.2787 5.47157C42.7505 4.84243 43.3642 4.5 44 4.5C44.6358 4.5 45.2495 4.84243 45.7213 5.47157C46.1933 6.10087 46.5 6.99315 46.5 8Z" fill="#D8D8D8" stroke="white"/>
<circle cx="43.1" cy="7.3" r="1" fill="#1E1E1E"/>
<path d="M53.5 8C53.5 9.00685 53.1933 9.89913 52.7213 10.5284C52.2495 11.1576 51.6358 11.5 51 11.5C50.3642 11.5 49.7505 11.1576 49.2787 10.5284C48.8067 9.89913 48.5 9.00685 48.5 8C48.5 6.99315 48.8067 6.10087 49.2787 5.47157C49.7505 4.84243 50.3642 4.5 51 4.5C51.6358 4.5 52.2495 4.84243 52.7213 5.47157C53.1933 6.10087 53.5 6.99315 53.5 8Z" fill="#D8D8D8" stroke="white"/>
<circle cx="50.1" cy="7.3" r="1" fill="#1E1E1E"/>
<path d="M5.95312 5.02734C5.77344 4.82422 5.58203 4.67188 5.37891 4.57031C5.17578 4.46875 4.95703 4.41016 4.72266 4.39453V3.23438C5.59766 3.27344 6.33203 3.58203 6.92578 4.16016L5.95312 5.02734ZM4.72266 10.8984C4.95703 10.875 5.17578 10.8125 5.37891 10.7109C5.58984 10.6094 5.78125 10.4609 5.95312 10.2656L6.92578 11.1211C6.62891 11.4102 6.29688 11.6328 5.92969 11.7891C5.5625 11.9453 5.16016 12.0352 4.72266 12.0586V10.8984ZM0.925781 7.64062C0.925781 6.94531 1.00781 6.33203 1.17188 5.80078C1.34375 5.26953 1.57812 4.82031 1.875 4.45312C2.17188 4.08594 2.51953 3.80078 2.91797 3.59766C3.32422 3.39453 3.76562 3.27344 4.24219 3.23438V4.40625C3.98438 4.44531 3.74219 4.53516 3.51562 4.67578C3.28906 4.80859 3.08984 5.00391 2.91797 5.26172C2.74609 5.51953 2.60938 5.84766 2.50781 6.24609C2.41406 6.63672 2.36328 7.10156 2.35547 7.64062C2.36328 8.1875 2.41406 8.65625 2.50781 9.04688C2.60938 9.4375 2.74609 9.76562 2.91797 10.0312C3.08984 10.2969 3.28906 10.5 3.51562 10.6406C3.75 10.7812 3.99219 10.8672 4.24219 10.8984V12.0469C3.76562 12.0156 3.32422 11.8984 2.91797 11.6953C2.51953 11.4922 2.17188 11.207 1.875 10.8398C1.57812 10.4727 1.34375 10.0234 1.17188 9.49219C1.00781 8.95312 0.925781 8.33594 0.925781 7.64062Z" fill="white"/>
<rect width="1" height="5" rx="0.5" transform="matrix(-1 0 0 1 11.4 7)" fill="white"/>
<path d="M10.182 4.76777C11.1583 5.74408 11.6332 6.85212 11.2426 7.24264C10.8521 7.63317 9.74408 7.15829 8.76777 6.18198C7.79146 5.20567 7.31659 4.09763 7.70711 3.70711C8.09763 3.31658 9.20567 3.79146 10.182 4.76777Z" fill="white"/>
<path d="M13.182 6.18197C12.2057 7.15828 11.0976 7.63315 10.7071 7.24263C10.3166 6.85211 10.7915 5.74407 11.7678 4.76776C12.7441 3.79145 13.8521 3.31657 14.2426 3.7071C14.6332 4.09762 14.1583 5.20566 13.182 6.18197Z" fill="#5CD376"/>
<path d="M16.75 6.26367C17.1406 6.06445 17.5312 5.96484 17.9219 5.96484C18.3164 5.96484 18.6348 6.00977 18.877 6.09961C19.1191 6.18555 19.3262 6.3125 19.498 6.48047C19.8574 6.83594 20.0371 7.34375 20.0371 8.00391C20.0371 9.30859 19.6953 10.3203 19.0117 11.0391C18.3984 11.6797 17.6328 12 16.7148 12H15.1211L15.2324 11.7305C15.3496 11.4453 15.418 11.1523 15.4375 10.8516C15.457 10.5469 15.4707 10.2695 15.4785 10.0195C15.4902 9.76562 15.5 9.49219 15.5078 9.19922C15.5273 8.67188 15.5371 8.1543 15.5371 7.64648C15.5371 7.13867 15.5352 6.75391 15.5312 6.49219C15.5273 6.23047 15.5234 5.97656 15.5195 5.73047C15.4961 4.80078 15.457 4.23633 15.4023 4.03711C15.3516 3.83398 15.3008 3.68359 15.25 3.58594C15.2031 3.48438 15.1484 3.39063 15.0859 3.30469L14.8867 3.03516H17.0254C16.8809 3.55078 16.7891 4.62695 16.75 6.26367ZM16.7559 7.80469L16.7383 9.96094C16.7383 10.7148 16.7578 11.2441 16.7969 11.5488C17.332 11.4316 17.7617 11.0742 18.0859 10.4766C18.4102 9.88672 18.5723 9.16016 18.5723 8.29688C18.5723 7.76172 18.5312 7.38672 18.4492 7.17188C18.3711 6.95312 18.2754 6.79492 18.1621 6.69727C18.0527 6.59961 17.9199 6.55078 17.7637 6.55078C17.6113 6.55078 17.4766 6.57812 17.3594 6.63281C17.2422 6.6875 17.1387 6.76758 17.0488 6.87305C16.8535 7.10352 16.7559 7.41406 16.7559 7.80469ZM25.375 10.0078C25.5156 10.1016 25.5859 10.2656 25.5859 10.5C25.5859 10.7305 25.5547 10.9336 25.4922 11.1094C25.4297 11.2852 25.3203 11.4492 25.1641 11.6016C24.8125 11.9453 24.2773 12.1172 23.5586 12.1172C22.7227 12.1172 22.0859 11.8086 21.6484 11.1914C21.2617 10.6406 21.0684 9.89648 21.0684 8.95898C21.0684 8.01367 21.3301 7.27148 21.8535 6.73242C22.3496 6.2207 23.0215 5.96484 23.8691 5.96484C24.459 5.96484 24.9199 6.13672 25.252 6.48047C25.5137 6.75391 25.6445 7.07031 25.6445 7.42969C25.6445 7.78516 25.5742 8.10742 25.4336 8.39648C25.2969 8.68164 25.0938 8.92773 24.8242 9.13477C24.2695 9.56445 23.4941 9.79102 22.498 9.81445C22.5801 10.5996 22.8262 11.125 23.2363 11.3906C23.3848 11.4844 23.582 11.5312 23.8281 11.5312C24.0742 11.5312 24.3359 11.4023 24.6133 11.1445C24.8906 10.8867 25.1445 10.5078 25.375 10.0078ZM22.4629 9.25781C23.6973 9.17578 24.3145 8.57812 24.3145 7.46484C24.3145 7.04688 24.1895 6.76562 23.9395 6.62109C23.8535 6.57422 23.7402 6.55078 23.5996 6.55078C23.459 6.55078 23.3164 6.59375 23.1719 6.67969C23.0312 6.76562 22.9082 6.90625 22.8027 7.10156C22.5762 7.52734 22.4629 8.18555 22.4629 9.07617V9.25781ZM27.0156 12C27.1953 11.3828 27.2852 10.3223 27.2852 8.81836C27.2852 7.74805 27.1992 7.01758 27.0273 6.62695C26.957 6.4668 26.832 6.28516 26.6523 6.08203H28.7324C28.6621 6.32812 28.6055 6.66602 28.5625 7.0957C28.9297 6.63477 29.4414 6.30859 30.0977 6.11719C30.3789 6.03516 30.584 5.90625 30.7129 5.73047C30.8418 6.03906 30.9062 6.30469 30.9062 6.52734C30.9062 6.75 30.8945 6.95703 30.8711 7.14844C30.8477 7.33594 30.8125 7.51953 30.7656 7.69922C30.6641 8.08594 30.5293 8.38672 30.3613 8.60156C30.2168 7.83984 29.9922 7.39453 29.6875 7.26562C29.3359 7.11328 28.9922 7.32031 28.6562 7.88672C28.5859 8.00391 28.5273 8.12891 28.4805 8.26172C28.4766 8.35156 28.4746 8.44336 28.4746 8.53711C28.4746 8.63086 28.4746 8.72461 28.4746 8.81836C28.4746 10.3223 28.5645 11.3828 28.7441 12H27.0156Z" fill="white"/>
</svg>
